# Blender 3.5.0
# www.blender.org
mtllib skateboard.mtl
o Cube
v 2.690326 0.166593 1.000000
v 2.690326 -0.033428 1.000000
v -2.690326 0.166593 1.000000
v -2.690326 -0.033428 1.000000
v 2.690326 0.166593 -1.000000
v 2.690326 -0.033428 -1.000000
v -2.690326 0.166593 -1.000000
v -2.690326 -0.033428 -1.000000
v 3.533773 0.302651 0.000000
v -3.533773 0.502672 0.000000
v -3.533773 0.302651 0.000000
v 3.533773 0.502672 0.000000
v -3.533773 0.302651 0.500000
v 3.533773 0.502672 0.500000
v 3.533773 0.302651 0.500000
v -3.533773 0.502672 0.500000
v 3.533773 0.302651 -0.500000
v -3.533773 0.502672 -0.500000
v -3.533773 0.302651 -0.500000
v 3.533773 0.502672 -0.500000
v 2.690327 0.166593 0.000000
v 2.690325 -0.033428 -0.500000
v 2.690327 0.166593 -0.500000
v 2.690325 0.166593 0.500000
v 2.690329 -0.033428 0.000000
v 2.690329 -0.033428 0.500000
v -2.690327 0.166593 0.000000
v -2.690325 -0.033428 -0.500000
v -2.690327 0.166593 -0.500000
v -2.690325 0.166593 0.500000
v -2.690329 -0.033428 0.000000
v -2.690329 -0.033428 0.500000
vn -0.3702 0.9290 -0.0000
vn -0.5099 -0.0000 -0.8602
vn -0.0000 -0.0000 -1.0000
vn 0.3702 -0.9290 -0.0000
vn -0.0000 -0.0000 1.0000
vn 0.5099 -0.0000 0.8602
vn 1.0000 -0.0000 -0.0000
vn -1.0000 -0.0000 -0.0000
vn -0.5099 -0.0000 0.8602
vn 0.5099 -0.0000 -0.8602
vn -0.0000 -1.0000 -0.0000
vn -0.0000 1.0000 -0.0000
vn 0.3702 0.9290 -0.0000
vn -0.3702 -0.9290 -0.0000
vt 0.625000 0.500000
vt 0.375000 0.500000
vt 0.625000 0.750000
vt 0.375000 0.750000
vt 0.625000 0.250000
vt 0.875000 0.500000
vt 0.375000 0.250000
vt 0.125000 0.500000
vt 0.625000 1.000000
vt 0.625000 0.000000
vt 0.875000 0.750000
vt 0.375000 1.000000
vt 0.375000 0.000000
vt 0.125000 0.750000
vt 0.375000 0.375000
vt 0.250000 0.500000
vt 0.625000 0.875000
vt 0.750000 0.750000
vt 0.375000 0.875000
vt 0.250000 0.750000
vt 0.750000 0.500000
vt 0.625000 0.375000
vt 0.375000 0.812500
vt 0.312500 0.750000
vt 0.687500 0.500000
vt 0.625000 0.437500
vt 0.375000 0.437500
vt 0.312500 0.500000
vt 0.625000 0.812500
vt 0.687500 0.750000
vt 0.187500 0.500000
vt 0.375000 0.312500
vt 0.625000 0.937500
vt 0.812500 0.750000
vt 0.375000 0.937500
vt 0.187500 0.750000
vt 0.625000 0.312500
vt 0.812500 0.500000
vt 0.750000 0.521080
vt 0.187500 0.521080
vt 0.812500 0.521080
vt 0.687500 0.521080
vt 0.250000 0.521080
vt 0.312500 0.521080
vt 0.750000 0.728920
vt 0.187500 0.728920
vt 0.812500 0.728920
vt 0.687500 0.728920
vt 0.250000 0.728920
vt 0.312500 0.728920
s 0
usemtl Material
f 20/38/1 5/6/1 23/41/1
f 19/35/2 7/9/2 8/12/2
f 7/10/3 6/7/3 8/13/3
f 15/28/4 2/2/4 26/44/4
f 1/1/5 4/4/5 2/2/5
f 15/27/6 1/1/6 2/2/6
f 20/37/7 9/15/7 17/32/7
f 17/31/4 25/43/4 22/40/4
f 16/29/8 11/19/8 13/23/8
f 14/25/1 21/39/1 24/42/1
f 1/1/1 14/25/1 24/42/1
f 3/3/9 13/23/9 4/4/9
f 12/22/7 15/27/7 9/15/7
f 15/28/4 25/43/4 9/16/4
f 6/8/4 17/31/4 22/40/4
f 5/5/10 17/32/10 6/7/10
f 10/17/8 19/35/8 11/19/8
f 20/38/1 21/39/1 12/21/1
f 28/46/11 6/8/11 22/40/11
f 5/6/12 29/47/12 23/41/12
f 21/39/12 30/48/12 24/42/12
f 26/44/11 31/49/11 25/43/11
f 2/2/11 32/50/11 26/44/11
f 30/48/12 1/1/12 24/42/12
f 23/41/12 27/45/12 21/39/12
f 25/43/11 28/46/11 22/40/11
f 27/45/13 16/30/13 30/48/13
f 29/47/13 10/18/13 27/45/13
f 32/50/14 11/20/14 31/49/14
f 8/14/14 28/46/14 19/36/14
f 31/49/14 19/36/14 28/46/14
f 32/50/14 4/4/14 13/24/14
f 29/47/13 7/11/13 18/34/13
f 3/3/13 30/48/13 16/30/13
f 19/35/2 18/33/2 7/9/2
f 7/10/3 5/5/3 6/7/3
f 1/1/5 3/3/5 4/4/5
f 15/27/6 14/26/6 1/1/6
f 20/37/7 12/22/7 9/15/7
f 17/31/4 9/16/4 25/43/4
f 16/29/8 10/17/8 11/19/8
f 14/25/1 12/21/1 21/39/1
f 3/3/9 16/29/9 13/23/9
f 12/22/7 14/26/7 15/27/7
f 15/28/4 26/44/4 25/43/4
f 5/5/10 20/37/10 17/32/10
f 10/17/8 18/33/8 19/35/8
f 20/38/1 23/41/1 21/39/1
f 28/46/11 8/14/11 6/8/11
f 5/6/12 7/11/12 29/47/12
f 21/39/12 27/45/12 30/48/12
f 26/44/11 32/50/11 31/49/11
f 2/2/11 4/4/11 32/50/11
f 30/48/12 3/3/12 1/1/12
f 23/41/12 29/47/12 27/45/12
f 25/43/11 31/49/11 28/46/11
f 27/45/13 10/18/13 16/30/13
f 29/47/13 18/34/13 10/18/13
f 32/50/14 13/24/14 11/20/14
f 31/49/14 11/20/14 19/36/14
